<?xml version="1.0" standalone="no"?>
<!DOCTYPE svg PUBLIC "-//W3C//DTD SVG 20010904//EN"
 "http://www.w3.org/TR/2001/REC-SVG-20010904/DTD/svg10.dtd">
<svg version="1.0" xmlns="http://www.w3.org/2000/svg"
 width="512.000000pt" height="512.000000pt" viewBox="0 0 512.000000 512.000000"
 preserveAspectRatio="xMidYMid meet">

<g transform="translate(0.000000,512.000000) scale(0.100000,-0.100000)"
fill="#3bdbc9" stroke="none">
<path d="M2438 5055 c-51 -17 -131 -73 -172 -122 -14 -17 -39 -58 -53 -90 -24
-49 -28 -71 -28 -148 0 -80 3 -97 32 -157 139 -295 547 -295 686 0 28 60 32
77 32 157 0 80 -4 97 -31 155 -38 80 -106 150 -182 186 -47 23 -73 28 -147 31
-60 2 -106 -2 -137 -12z m244 -180 c50 -35 98 -120 98 -173 0 -126 -96 -224
-220 -224 -124 0 -220 98 -220 223 0 49 42 132 82 162 51 39 77 47 150 44 56
-2 75 -8 110 -32z"/>
<path d="M1740 4626 c-510 -207 -924 -587 -1170 -1075 -50 -100 -120 -277
-120 -304 0 -23 52 -77 75 -77 46 0 71 28 104 117 205 545 658 997 1204 1204
89 33 117 58 117 104 0 25 -55 75 -82 74 -13 0 -70 -20 -128 -43z"/>
<path d="M3199 4641 c-33 -33 -35 -50 -15 -89 11 -22 34 -35 103 -61 547 -207
998 -659 1204 -1204 33 -89 58 -117 104 -117 23 0 75 54 75 77 0 11 -18 66
-40 122 -102 260 -260 509 -465 729 -142 152 -388 336 -591 440 -112 57 -297
132 -327 132 -10 0 -32 -13 -48 -29z"/>
<path d="M2380 4082 c-58 -26 -80 -60 -119 -182 l-30 -95 -83 -28 c-46 -16
-117 -46 -159 -67 l-75 -38 -85 44 c-175 92 -193 88 -361 -84 -151 -154 -152
-158 -76 -315 l55 -112 -39 -75 c-21 -41 -50 -112 -65 -158 l-27 -83 -94 -29
c-183 -57 -192 -71 -192 -300 0 -229 9 -243 192 -300 l93 -29 28 -84 c16 -45
45 -116 66 -157 l38 -75 -55 -112 c-76 -156 -75 -162 72 -312 106 -109 165
-150 212 -151 12 0 70 24 130 53 l109 54 75 -38 c41 -21 112 -50 157 -66 l84
-28 29 -93 c57 -183 71 -192 298 -192 89 0 171 4 184 9 48 18 76 61 112 169
l36 107 83 28 c45 16 116 45 157 66 l75 38 109 -53 c60 -30 118 -54 130 -54
46 1 105 42 203 141 110 111 139 160 127 213 -3 17 -28 74 -54 126 l-47 95 43
89 c24 50 54 121 66 158 l22 68 95 31 c181 58 185 63 189 274 2 87 1 173 -2
190 -11 56 -57 90 -174 129 l-107 36 -28 83 c-16 45 -45 116 -66 157 l-38 75
53 109 c30 60 54 118 54 130 -1 46 -43 106 -146 208 -91 89 -117 109 -156 119
-46 13 -47 12 -160 -43 l-113 -55 -75 38 c-41 21 -112 51 -157 66 l-83 27 -35
107 c-37 109 -65 152 -113 170 -27 10 -339 11 -362 1z m330 -242 c48 -154 56
-163 194 -210 49 -16 130 -50 182 -76 115 -56 134 -55 267 13 l89 46 85 -85
85 -85 -51 -103 c-28 -57 -51 -115 -51 -133 0 -17 22 -76 49 -131 27 -56 59
-132 71 -171 44 -135 51 -142 198 -190 l97 -31 0 -124 0 -124 -97 -31 c-147
-48 -154 -55 -198 -190 -12 -38 -44 -115 -71 -171 -27 -55 -49 -114 -49 -132
0 -18 22 -74 52 -132 l51 -102 -85 -85 -86 -86 -102 52 c-57 28 -116 51 -133
51 -17 0 -76 -22 -131 -49 -56 -27 -132 -59 -171 -71 -135 -44 -142 -51 -190
-198 l-31 -97 -124 0 -123 0 -37 110 c-26 73 -46 117 -64 131 -14 12 -62 34
-108 49 -46 15 -128 49 -184 76 -56 27 -114 49 -132 49 -19 0 -71 -21 -128
-50 -53 -27 -101 -50 -107 -50 -17 0 -167 152 -167 168 0 8 20 51 44 96 68
124 69 144 8 268 -28 57 -63 140 -77 186 -15 46 -37 94 -49 108 -14 18 -58 38
-131 64 l-110 37 0 123 0 123 97 32 c147 48 155 56 197 190 12 39 43 113 69
164 62 124 62 149 0 268 -27 51 -48 98 -48 105 0 15 150 168 165 168 6 0 54
-22 108 -50 56 -29 111 -50 129 -50 18 0 77 22 132 49 56 27 139 62 186 77
110 35 129 55 170 179 18 55 35 104 37 108 3 4 59 6 126 5 l121 -3 26 -85z"/>
<path d="M2372 3435 c-339 -76 -603 -336 -683 -670 -28 -119 -28 -291 0 -410
51 -211 181 -403 356 -524 183 -127 379 -179 600 -159 109 9 188 31 294 79
227 105 394 297 477 549 27 80 28 95 28 260 0 165 -1 180 -28 260 -97 294
-305 502 -596 596 -74 23 -105 27 -235 30 -105 3 -169 -1 -213 -11z m372 -165
c128 -33 228 -91 331 -195 104 -103 162 -203 195 -331 25 -95 27 -260 5 -353
-17 -69 -80 -212 -111 -250 l-20 -23 -41 55 c-43 56 -103 109 -160 143 -18 10
-33 21 -33 24 0 4 13 31 29 61 103 194 43 436 -139 558 -79 52 -143 71 -242
71 -318 0 -524 -332 -383 -617 35 -71 36 -75 18 -88 -10 -8 -21 -15 -25 -15
-18 -1 -112 -87 -150 -136 l-42 -56 -19 23 c-35 43 -88 160 -108 238 -27 104
-27 259 0 364 34 130 92 229 196 332 102 103 202 162 327 195 102 26 269 27
372 0z m-66 -426 c130 -65 188 -221 128 -349 -98 -212 -377 -220 -485 -14 -30
59 -33 70 -29 134 5 76 21 115 71 171 73 84 212 110 315 58z m-268 -646 c77
-31 222 -31 299 0 l53 21 54 -20 c65 -25 152 -101 184 -163 l24 -44 -24 -21
c-47 -39 -179 -102 -256 -121 -53 -14 -111 -20 -184 -20 -73 0 -131 6 -184 20
-77 19 -209 82 -256 121 l-24 21 24 45 c31 59 121 138 185 163 27 10 50 19 50
19 0 1 25 -9 55 -21z"/>
<path d="M377 2918 c-38 -35 -377 -631 -377 -662 0 -15 11 -38 25 -51 l24 -25
376 0 376 0 24 25 c15 14 25 36 25 52 0 34 -337 626 -376 661 -14 12 -36 22
-49 22 -13 0 -35 -10 -48 -22z m153 -398 l100 -175 -99 -3 c-55 -1 -147 -1
-205 0 l-105 3 102 177 c56 97 103 175 104 174 1 -1 47 -80 103 -176z"/>
<path d="M4646 2918 c-38 -35 -376 -628 -376 -661 0 -16 10 -38 25 -52 l24
-25 376 0 376 0 24 25 c14 13 25 36 25 51 0 31 -339 627 -377 662 -13 12 -35
22 -48 22 -13 0 -35 -10 -49 -22z m160 -413 l93 -160 -99 -3 c-54 -1 -146 -1
-205 0 l-105 3 102 178 c84 145 104 174 112 160 5 -10 51 -90 102 -178z"/>
<path d="M479 1921 c-16 -16 -29 -38 -29 -48 0 -11 18 -66 40 -122 197 -504
591 -935 1080 -1181 99 -50 276 -120 303 -120 23 0 77 52 77 75 0 42 -29 72
-92 95 -93 33 -282 124 -368 177 -391 241 -703 617 -861 1036 -26 69 -39 92
-61 103 -39 20 -56 18 -89 -15z"/>
<path d="M4549 1935 c-18 -10 -34 -37 -58 -102 -205 -545 -658 -997 -1204
-1204 -89 -33 -117 -58 -117 -104 0 -23 54 -75 77 -75 30 0 216 75 327 132
410 211 753 554 964 965 57 110 132 296 132 326 0 24 -53 77 -77 77 -10 -1
-29 -7 -44 -15z"/>
<path d="M2243 803 c-13 -2 -32 -16 -43 -30 -19 -25 -20 -40 -20 -348 0 -311
1 -323 21 -349 l20 -26 339 0 339 0 20 26 c20 26 21 38 21 350 l0 323 -24 28
-24 28 -314 1 c-172 1 -323 0 -335 -3z m537 -373 l0 -220 -220 0 -220 0 0 220
0 220 220 0 220 0 0 -220z"/>
</g>
</svg>
