<?xml version="1.0" standalone="no"?>
<!DOCTYPE svg PUBLIC "-//W3C//DTD SVG 20010904//EN"
 "http://www.w3.org/TR/2001/REC-SVG-20010904/DTD/svg10.dtd">
<svg version="1.0" xmlns="http://www.w3.org/2000/svg"
 width="512.000000pt" height="512.000000pt" viewBox="0 0 512.000000 512.000000"
 preserveAspectRatio="xMidYMid meet">

<g transform="translate(0.000000,512.000000) scale(0.100000,-0.100000)"
fill="#3bdbc9" stroke="none">
<path d="M2082 4597 c-18 -19 -22 -37 -24 -111 l-3 -89 -42 -16 -42 -15 -59
57 c-68 64 -97 75 -138 54 -16 -9 -104 -91 -196 -184 -158 -159 -168 -172
-168 -207 0 -32 8 -46 60 -100 l60 -62 -17 -42 -16 -42 -84 0 c-80 0 -86 -2
-114 -29 l-29 -29 0 -257 0 -256 25 -24 c22 -23 32 -25 109 -25 l86 0 20 -41
21 -40 -60 -65 c-52 -55 -61 -70 -61 -102 0 -34 12 -48 183 -219 220 -220 213
-217 313 -122 63 61 64 62 96 49 56 -22 58 -27 58 -114 0 -140 22 -151 216
-106 111 26 137 36 154 57 24 31 26 70 4 101 -25 36 -55 42 -120 27 -86 -21
-84 -22 -84 39 0 43 -5 61 -22 80 -25 29 -225 116 -265 116 -16 0 -43 -18 -79
-52 l-55 -52 -96 97 -97 96 47 50 c25 27 49 61 52 74 9 34 -76 244 -111 275
-21 18 -37 22 -95 22 l-69 0 0 140 0 140 69 0 c87 0 98 4 120 49 32 62 91 214
91 234 0 10 -23 43 -52 73 l-52 55 99 99 99 100 51 -50 c38 -37 58 -50 80 -50
17 0 81 21 143 47 128 53 142 67 142 153 0 44 2 51 18 46 65 -19 115 -27 137
-22 39 10 65 42 65 80 0 59 -23 75 -155 107 -147 36 -184 37 -213 6z"/>
<path d="M2915 4599 c-44 -11 -117 -38 -163 -61 -93 -46 -192 -131 -192 -165
0 -54 40 -93 95 -93 12 0 42 16 66 36 98 81 252 134 393 134 130 0 243 -39
352 -122 l58 -43 -85 -7 c-152 -11 -239 -47 -311 -126 -56 -63 -76 -118 -58
-162 15 -36 37 -50 80 -50 33 0 56 19 93 79 42 66 151 98 300 87 48 -4 94 -9
101 -12 20 -8 38 -88 37 -170 0 -112 -27 -200 -90 -298 -39 -62 -39 -89 -1
-128 27 -26 36 -30 68 -25 42 7 66 33 112 120 17 31 37 57 44 57 8 0 51 -19
97 -42 124 -61 238 -178 302 -309 96 -193 111 -394 46 -595 l-19 -60 -68 23
c-37 12 -77 23 -89 23 -18 0 -23 9 -32 52 -16 74 -67 163 -123 213 -88 79
-220 109 -272 63 -57 -52 -21 -148 56 -148 50 0 108 -39 143 -94 27 -44 30
-58 30 -125 0 -86 -22 -140 -75 -184 -32 -27 -42 -31 -103 -42 -52 -8 -77 -36
-77 -83 0 -81 72 -106 193 -66 68 23 175 127 202 197 18 48 19 49 54 42 72
-13 159 -66 225 -135 109 -115 152 -237 143 -400 -5 -103 -29 -184 -74 -256
l-28 -43 -28 81 c-64 182 -164 278 -289 278 -39 0 -54 -5 -73 -25 -50 -49 -18
-129 56 -141 104 -17 179 -185 181 -404 0 -83 -4 -117 -21 -164 -53 -148 -164
-257 -302 -296 -16 -5 -29 -5 -29 -1 0 4 5 45 11 91 9 68 18 93 45 132 67 98
93 212 74 319 -23 128 -105 249 -168 249 -77 0 -110 -85 -58 -152 40 -53 56
-102 56 -170 0 -76 -23 -129 -76 -180 -53 -50 -106 -71 -179 -70 -71 0 -116
18 -174 66 -76 64 -161 38 -161 -49 0 -66 137 -162 266 -186 56 -10 142 -7
179 7 44 17 -30 -152 -103 -236 -101 -116 -227 -168 -379 -157 -111 8 -187 28
-289 77 -75 36 -96 53 -181 146 -46 50 -143 15 -143 -51 0 -82 129 -202 287
-269 134 -56 208 -71 358 -71 120 0 149 3 202 22 126 46 249 141 324 250 23
34 37 43 67 48 203 29 327 97 434 236 75 96 138 269 138 377 0 20 9 35 31 51
38 29 113 129 151 205 91 180 92 450 2 628 -34 68 -78 132 -126 184 l-38 42
29 88 c78 236 64 491 -40 712 -96 206 -265 368 -469 451 l-56 23 0 106 c-1 87
-6 122 -28 188 -74 229 -301 431 -548 489 -90 21 -263 18 -363 -6z"/>
<path d="M2268 3939 c-112 -26 -236 -128 -284 -234 -122 -266 59 -576 346
-593 74 -4 77 -3 98 23 53 67 15 130 -85 145 -73 10 -107 27 -155 77 -49 50
-68 99 -68 171 0 137 87 231 232 251 71 10 98 33 98 88 0 52 -36 83 -97 82
-26 -1 -65 -5 -85 -10z"/>
<path d="M2952 3670 c-30 -13 -55 -71 -43 -102 15 -38 43 -55 106 -63 120 -13
228 -86 283 -190 24 -44 27 -61 27 -150 0 -84 -4 -107 -23 -146 -52 -105 -159
-184 -264 -195 -78 -8 -109 -23 -124 -60 -15 -37 -11 -58 19 -91 17 -19 31
-23 77 -23 268 0 495 236 493 515 -1 185 -93 346 -254 443 -84 51 -245 84
-297 62z"/>
<path d="M955 2965 c-21 -21 -25 -33 -25 -89 l0 -65 -46 -21 -47 -20 -48 45
c-65 61 -124 63 -154 4 -24 -45 -18 -67 31 -119 l46 -49 -17 -46 -18 -45 -64
0 c-80 0 -113 -26 -113 -89 0 -58 33 -81 115 -81 l62 0 18 -46 17 -46 -41 -42
c-65 -66 -65 -128 -1 -161 41 -21 70 -11 120 40 l42 43 49 -21 49 -21 0 -67
c0 -61 3 -70 26 -88 37 -29 85 -27 114 4 18 19 25 41 29 91 6 65 6 65 46 83
l40 19 47 -46 c59 -57 106 -63 144 -18 37 42 32 79 -20 134 l-45 48 17 47 17
47 63 0 c57 0 66 3 94 30 25 26 29 36 24 63 -10 53 -47 77 -119 77 l-62 0 -19
45 -18 46 46 49 c54 58 60 96 21 135 -40 40 -86 34 -142 -18 l-46 -44 -42 16
-43 15 -4 69 c-3 61 -7 72 -31 93 -37 31 -81 31 -112 -1z m97 -325 c78 -22
128 -87 128 -166 0 -113 -111 -198 -215 -164 -162 53 -167 269 -8 325 47 17
49 17 95 5z"/>
<path d="M3029 2288 c-71 -58 -39 -143 60 -159 65 -10 117 -47 142 -103 24
-53 24 -90 -2 -143 -26 -54 -63 -80 -128 -93 -29 -5 -60 -14 -71 -20 -45 -24
-53 -84 -16 -127 21 -25 31 -28 78 -27 123 4 234 77 290 192 29 59 33 76 33
152 0 72 -4 93 -27 140 -35 72 -100 137 -167 168 -63 29 -167 40 -192 20z"/>
<path d="M1320 1950 c-159 -92 -200 -125 -200 -162 0 -12 19 -55 41 -97 l42
-75 -24 -42 -23 -42 -94 -4 c-136 -5 -132 4 -132 -260 0 -208 0 -209 25 -233
22 -23 32 -25 112 -25 l88 0 24 -42 24 -42 -43 -81 c-43 -79 -47 -105 -22
-142 4 -6 81 -55 171 -107 215 -126 230 -127 300 -6 l37 65 51 3 52 3 27 -48
c83 -145 92 -146 299 -27 154 88 205 129 205 165 0 12 -19 55 -41 97 l-42 75
24 43 24 44 88 0 c80 0 90 2 112 25 25 24 25 25 25 229 0 112 -3 212 -6 221
-12 30 -60 45 -142 45 l-79 0 -23 43 -23 43 42 75 c22 42 41 86 41 98 0 35
-44 70 -206 164 -200 115 -215 115 -284 -5 l-41 -73 -49 0 -49 0 -41 73 c-69
121 -85 121 -290 2z m185 -166 c17 -31 39 -62 50 -70 23 -17 255 -20 285 -4
10 6 34 37 52 70 l34 59 72 -41 c40 -23 72 -45 72 -49 0 -5 -13 -31 -30 -59
-37 -63 -38 -105 -4 -151 15 -19 39 -62 55 -96 16 -34 38 -67 48 -73 11 -5 51
-10 90 -10 l71 0 0 -90 0 -90 -72 0 c-87 -1 -99 -8 -137 -86 -16 -33 -41 -74
-55 -93 -34 -46 -33 -88 4 -154 17 -30 30 -56 30 -59 0 -7 -141 -90 -145 -86
-1 2 -17 29 -35 61 -18 31 -40 62 -49 67 -23 12 -259 12 -282 0 -10 -6 -32
-36 -50 -67 -18 -32 -33 -59 -34 -61 -4 -6 -145 80 -145 88 0 5 14 32 30 60
36 61 38 103 6 144 -13 17 -38 60 -56 96 -18 36 -40 70 -49 77 -9 7 -47 13
-88 13 l-73 0 0 90 0 90 69 0 c38 0 77 3 86 6 9 4 31 36 50 73 18 36 45 81 59
100 34 46 33 82 -5 149 -16 29 -29 58 -27 63 3 8 124 85 138 88 3 1 19 -24 35
-55z"/>
<path d="M1616 1514 c-94 -29 -176 -143 -176 -244 0 -86 65 -191 144 -233 64
-34 175 -31 238 5 198 117 170 409 -46 473 -61 18 -97 18 -160 -1z m123 -169
c62 -32 57 -128 -7 -154 -42 -17 -82 -3 -105 37 -16 27 -17 37 -7 67 11 33 48
64 78 65 7 0 26 -7 41 -15z"/>
</g>
</svg>
