<?xml version="1.0" standalone="no"?>
<!DOCTYPE svg PUBLIC "-//W3C//DTD SVG 20010904//EN"
 "http://www.w3.org/TR/2001/REC-SVG-20010904/DTD/svg10.dtd">
<svg version="1.0" xmlns="http://www.w3.org/2000/svg"
 width="512.000000pt" height="512.000000pt" viewBox="0 0 512.000000 512.000000"
 preserveAspectRatio="xMidYMid meet">

<g transform="translate(0.000000,512.000000) scale(0.100000,-0.100000)"
fill="#3bdbc9" stroke="none">
<path d="M2295 5108 c-55 -20 -114 -68 -142 -116 -27 -46 -28 -51 -31 -227
l-4 -181 -71 -18 c-114 -29 -251 -83 -390 -153 l-129 -65 -117 116 c-68 66
-133 122 -155 131 -21 9 -64 16 -97 16 -99 1 -141 -26 -340 -219 -193 -188
-211 -214 -211 -313 0 -90 28 -139 148 -260 l106 -106 -46 -82 c-63 -111 -117
-236 -161 -373 l-37 -116 -162 -4 c-186 -4 -227 -17 -294 -93 -58 -66 -62 -91
-62 -376 0 -246 1 -256 24 -304 13 -27 39 -64 57 -82 60 -57 96 -66 281 -71
l167 -4 12 -52 c30 -128 119 -346 195 -479 l28 -47 -117 -118 c-130 -132 -149
-166 -149 -259 -1 -96 22 -131 213 -327 190 -195 223 -218 318 -218 97 0 139
26 288 175 l133 132 -57 57 c-32 32 -62 58 -67 58 -6 0 -67 -56 -136 -125
-104 -103 -132 -125 -156 -125 -24 0 -55 26 -186 158 -86 86 -161 167 -167
179 -24 47 -14 63 134 213 174 176 171 168 92 304 -97 166 -171 345 -202 491
-9 44 -21 93 -27 108 -21 54 -35 57 -253 57 -215 1 -225 3 -245 54 -14 38 -13
438 1 469 19 41 48 47 239 47 98 0 190 4 204 10 32 12 41 30 71 146 44 169
123 350 220 507 71 113 71 113 -95 282 -116 118 -140 147 -140 172 0 25 24 53
149 177 160 159 193 186 229 186 17 0 68 -42 175 -145 174 -167 175 -168 273
-109 182 110 395 195 585 234 97 19 97 20 101 268 3 211 3 214 27 233 21 18
42 19 261 19 l239 0 20 -26 c20 -25 21 -40 21 -224 0 -246 -6 -235 147 -275
185 -48 356 -121 516 -220 113 -71 112 -71 282 95 115 112 148 140 171 140 22
0 57 -29 182 -152 154 -154 182 -188 182 -229 0 -15 -47 -70 -145 -169 -171
-174 -170 -171 -101 -289 106 -181 180 -364 217 -535 30 -139 23 -136 274
-136 201 0 204 0 232 -24 l28 -24 3 -218 c2 -120 1 -228 -3 -241 -3 -12 -15
-32 -27 -43 -20 -19 -35 -20 -210 -20 -253 0 -241 7 -284 -158 -44 -168 -123
-350 -219 -505 -71 -113 -71 -113 95 -282 119 -120 140 -147 140 -173 0 -26
-22 -52 -156 -184 -85 -84 -165 -158 -177 -165 -53 -30 -71 -20 -213 119
l-135 132 -59 -59 -60 -60 132 -133 c73 -73 147 -142 164 -153 77 -48 207 -40
282 18 19 14 106 96 194 182 179 173 200 205 200 301 0 91 -28 140 -148 261
l-106 106 46 82 c63 111 117 236 162 374 l37 117 142 0 c185 0 232 13 300 83
31 32 55 68 63 93 8 28 12 123 12 295 0 246 -1 256 -24 304 -29 62 -66 97
-131 126 -43 20 -72 23 -217 27 l-167 5 -12 51 c-28 121 -113 329 -190 469
l-32 58 116 117 c126 128 147 163 148 246 2 97 -16 129 -137 260 -157 170
-256 264 -298 281 -51 22 -151 19 -206 -6 -28 -12 -85 -59 -150 -124 l-105
-105 -155 78 c-141 71 -275 123 -387 152 l-43 11 0 167 c0 154 -2 171 -24 218
-27 59 -90 116 -145 132 -50 15 -524 15 -566 0z"/>
<path d="M2445 3994 c-112 -11 -251 -40 -342 -69 -474 -156 -813 -536 -910
-1023 -27 -137 -24 -396 6 -532 63 -286 182 -492 422 -730 193 -191 255 -291
304 -483 l22 -89 -52 -52 c-71 -71 -89 -125 -83 -259 4 -110 14 -140 70 -203
17 -19 53 -46 79 -60 47 -23 48 -25 38 -54 -17 -48 -7 -238 14 -282 28 -56 95
-116 154 -138 50 -19 78 -20 393 -20 316 0 343 1 393 20 67 25 122 77 153 144
20 43 24 67 24 153 0 56 -4 113 -10 127 -9 24 -6 28 39 51 60 30 115 92 135
153 22 62 21 204 -1 268 -11 32 -34 66 -68 101 l-52 51 22 89 c49 192 111 291
304 482 246 244 368 461 428 759 24 119 24 383 0 504 -55 278 -191 526 -391
716 -251 237 -564 364 -930 376 -66 2 -139 2 -161 0z m385 -198 c443 -101 759
-381 888 -786 40 -126 53 -219 53 -370 0 -143 -18 -252 -63 -378 -69 -196
-150 -318 -323 -487 -73 -71 -156 -161 -184 -199 -85 -113 -149 -256 -184
-411 l-14 -60 -81 -3 -82 -3 0 460 0 459 123 4 c143 5 199 24 265 91 145 148
101 387 -87 479 -39 20 -62 23 -151 23 -91 0 -112 -3 -154 -24 -114 -56 -166
-144 -174 -293 l-5 -98 -98 0 -99 0 0 88 c0 54 -6 106 -16 135 -20 60 -84 131
-148 165 -46 24 -61 27 -156 27 -91 0 -112 -3 -154 -24 -186 -92 -229 -328
-88 -474 20 -21 60 -50 87 -65 44 -23 64 -26 178 -30 l127 -4 0 -460 0 -459
-87 3 -86 3 -14 60 c-35 155 -99 298 -184 411 -28 38 -111 128 -184 199 -212
206 -321 400 -370 657 -20 106 -21 316 -1 428 88 498 478 868 1001 949 85 14
386 5 465 -13z m-639 -1356 c19 -5 48 -24 65 -41 27 -28 29 -37 33 -115 l3
-84 -108 0 c-91 0 -114 3 -138 19 -37 25 -55 57 -56 99 -1 95 92 152 201 122z
m889 -15 c56 -29 77 -109 44 -165 -30 -49 -61 -60 -178 -60 l-106 0 0 75 c0
105 29 153 101 168 37 8 106 -1 139 -18z m-420 -865 l0 -460 -100 0 -100 0 0
460 0 460 100 0 100 0 0 -460z m442 -669 c32 -29 33 -31 33 -111 0 -80 -1 -82
-33 -111 l-32 -29 -510 0 -510 0 -32 29 c-32 29 -33 31 -33 111 0 80 1 82 33
111 l32 29 510 0 510 0 32 -29z m-176 -465 c32 -32 34 -38 34 -100 0 -72 -17
-118 -49 -136 -27 -14 -675 -14 -702 0 -32 18 -49 64 -49 136 0 62 2 68 34
100 l34 34 332 0 332 0 34 -34z"/>
</g>
</svg>
