<?xml version="1.0" standalone="no"?>
<!DOCTYPE svg PUBLIC "-//W3C//DTD SVG 20010904//EN"
 "http://www.w3.org/TR/2001/REC-SVG-20010904/DTD/svg10.dtd">
<svg version="1.0" xmlns="http://www.w3.org/2000/svg"
 width="512.000000pt" height="512.000000pt" viewBox="0 0 512.000000 512.000000"
 preserveAspectRatio="xMidYMid meet">

<g transform="translate(0.000000,512.000000) scale(0.100000,-0.100000)"
fill="#3bdbc9" stroke="none">
<path d="M288 4201 c-31 -10 -72 -28 -92 -40 -55 -34 -123 -116 -148 -179
l-23 -57 0 -1365 0 -1365 24 -60 c33 -82 124 -173 206 -206 l60 -24 2215 -3
c1650 -2 2229 0 2270 8 118 25 227 117 272 228 l23 57 0 1365 0 1365 -23 57
c-27 67 -97 148 -158 184 -97 57 37 54 -2359 53 -2105 0 -2213 -1 -2267 -18z
m4477 -273 c58 -26 55 46 55 -1368 0 -1414 3 -1342 -55 -1368 -38 -17 -4372
-17 -4410 0 -58 26 -55 -46 -55 1370 1 1399 -2 1335 51 1364 34 19 4374 21
4414 2z"/>
<path d="M1309 3645 c-313 -79 -500 -376 -434 -688 17 -81 64 -181 111 -236
19 -21 34 -42 34 -45 0 -3 -24 -21 -52 -39 -167 -107 -292 -278 -355 -484 -25
-83 -26 -102 -30 -338 -5 -249 -5 -250 19 -285 49 -74 6 -70 838 -70 690 0
748 1 779 18 19 9 44 30 55 45 20 27 21 41 20 285 0 250 -1 259 -27 345 -64
207 -184 372 -354 485 -29 19 -53 37 -53 39 0 3 15 22 33 44 19 21 48 69 66
105 153 315 -9 700 -338 805 -85 27 -235 34 -312 14z m265 -299 c105 -51 161
-144 161 -266 0 -85 -21 -142 -74 -203 -82 -92 -237 -121 -353 -64 -160 79
-215 278 -118 430 80 126 246 170 384 103z m-11 -861 c111 -23 192 -69 282
-160 131 -131 174 -246 175 -467 l0 -118 -580 0 -580 0 0 118 c1 221 44 337
174 467 150 148 329 203 529 160z"/>
<path d="M3638 3650 c-262 -47 -468 -202 -579 -435 -59 -122 -74 -190 -74
-335 0 -100 5 -141 23 -204 78 -270 279 -471 549 -548 111 -32 295 -32 406 0
270 77 472 278 549 548 29 103 32 295 5 394 -25 94 -98 235 -160 311 -95 114
-254 215 -402 254 -70 19 -250 28 -317 15z m283 -298 c175 -61 300 -211 333
-398 l5 -32 -87 29 c-258 82 -566 82 -824 0 l-87 -29 5 32 c38 216 197 378
414 420 49 9 186 -3 241 -22z m-301 -787 l0 -165 -52 21 c-84 33 -171 104
-227 187 l-22 32 48 21 c46 20 162 53 213 62 14 2 28 5 33 6 4 0 7 -73 7 -164z
m415 135 c39 -10 92 -28 118 -39 l48 -21 -29 -43 c-55 -80 -147 -152 -231
-182 l-41 -14 0 164 0 165 33 -6 c17 -3 64 -14 102 -24z"/>
<path d="M2652 1720 c-94 -57 -94 -183 0 -240 32 -19 53 -20 903 -20 809 0
872 1 904 18 101 51 106 183 9 242 -32 19 -52 20 -908 20 -856 0 -876 -1 -908
-20z"/>
</g>
</svg>
